<?xml version="1.0" encoding="utf-8"?>
<!-- Generator: Adobe Illustrator 16.0.0, SVG Export Plug-In . SVG Version: 6.00 Build 0)  -->
<!DOCTYPE svg PUBLIC "-//W3C//DTD SVG 1.1//EN" "http://www.w3.org/Graphics/SVG/1.1/DTD/svg11.dtd">
<svg version="1.1" id="Layer_1" xmlns="http://www.w3.org/2000/svg" xmlns:xlink="http://www.w3.org/1999/xlink" x="0px" y="0px"
	 width="574.531px" height="443.747px" viewBox="0 0 574.531 443.747" enable-background="new 0 0 574.531 443.747"
	 xml:space="preserve">
<g id="Image" transform="translate(148.000000, 155.000000)">
	<ellipse id="Oval" opacity="0.1" fill="#F05722" cx="31.394" cy="270.121" rx="122.875" ry="18.625"/>
	<path id="Path" opacity="0.1" fill="#F05722" d="M29.409-135.419c19.488-17.177,50.081-20.694,77.941-19.308
		c87.48,4.304,166.435,46.041,234.753,93.26c24.73,17.101,49.078,35.519,65.129,59.065c32.676,47.921,22.98,114.311-22.455,153.786
		c-15.461,13.45-34.199,23.732-53.438,32.857c-34.209,16.23-71.115,29.258-109.941,32.967c-27.685,2.645-55.709,0.489-83.23-3.197
		c-76.908-10.305-152.39-33.11-215.655-72.106c-27.747-17.085-53.901-38.368-65.341-66.042
		c-11.438-27.678-4.141-62.744,24.219-79.118c11.72-6.777,25.729-9.829,39.445-12.713c20.178-4.226,40.705-8.395,58.925-16.989
		c18.821-8.882,41.102-26.054,37.38-45.706C13.138-99.757,9.921-118.274,29.409-135.419z"/>
	<g>
		<path fill="#3F3D56" d="M344.295-132.587H191.403c-15.196,0-28.364,10.53-31.706,25.354L82.443,235.429
			c-3.19,14.151,5.695,28.211,19.849,31.4c1.475,0.334,2.975,0.538,4.484,0.613l157.175,7.744
			c17.408,0.857,32.754-11.332,35.855-28.484L343.631,4.436l3.26,0.933l8.385-45.919l-3.355-0.839l12.232-67.625
			c1.967-10.875-5.254-21.287-16.131-23.253C346.793-132.491,345.545-132.598,344.295-132.587L344.295-132.587z"/>
		<path fill="#FFFFFF" d="M211.532-125.2h-17.847c-10.56,0-19.694,7.356-21.945,17.673L97.587,232.339
			c-1.64,7.51,3.122,14.926,10.631,16.564c0.678,0.147,1.364,0.245,2.057,0.291l156.666,10.267
			c9.15,0.601,17.293-5.766,18.918-14.791l63.275-351.285c1.545-8.581-4.158-16.791-12.738-18.336
			c-0.924-0.166-1.859-0.25-2.799-0.25h-16.932c-3.369,0-6.318,2.26-7.193,5.514l0,0c-0.773,2.872-3.377,4.868-6.352,4.868h-80.377
			C216.866-114.818,211.981-119.342,211.532-125.2L211.532-125.2z"/>
		<path fill="#A0616A" d="M43.833,49.616l13.813,27.347L98.95,95.74c4.41,7.453,18.427,8.025,19.446,3.204
			c1.144-5.407-17.021-14.112-17.021-14.112L66.829,61.465l-3.022-20.116L43.833,49.616z"/>
		<polygon fill="#A0616A" points="45.463,233.134 42.916,253.514 57.691,254.534 59.219,233.134 		"/>
		<path fill="#2F2E41" d="M47.501,250.458c-1.321-1.397-2.539-2.886-3.646-4.459c-2.117-2.93-3.997,12.103-3.997,12.103
			s-2.037,6.113-1.528,9.17c0.51,3.057,12.228,3.057,14.266,2.547s12.229,0,12.229,0h15.284c13.248-6.113,0-10.189,0-10.189
			c-4.076-0.51-17.832-13.247-17.832-13.247l-3.058-5.604c-2.037-0.51-4.075,7.133-4.075,7.133L47.501,250.458z"/>
		<polygon fill="#A0616A" points="7.251,233.39 4.703,253.769 19.479,254.789 21.007,233.39 		"/>
		<path fill="#2F2E41" d="M9.289,250.712c-1.321-1.398-2.54-2.887-3.646-4.459c-2.118-2.93-3.997,12.102-3.997,12.102
			s-2.038,5.604-1.528,8.661s12.228,3.058,14.266,2.548s12.228,0.51,12.228,0.51h15.285c13.247-6.115,0-10.19,0-10.19
			c-4.075-0.51-17.832-13.247-17.832-13.247l-3.058-5.604c-2.038-0.509-4.075,7.133-4.075,7.133L9.289,250.712z"/>
		<path fill="#2F2E41" d="M24.064,101.94c-2.038,2.548-1.019,11.209-1.019,11.209s-3.567,28.021-2.039,30.569
			c1.529,2.547-1.019,4.586-2.547,8.152s-3.057,12.229-3.057,12.229c-8.661,7.131-8.152,39.74-8.152,39.74L4.193,232.88
			c1.02,3.057,15.285,3.566,17.323,3.057s8.151-46.363,8.151-46.363l13.757-25.984c0,0-1.019,69.291-1.019,72.348
			s13.756,1.528,16.813,1.528c3.058,0,3.058-50.948,3.058-50.948l3.057-13.248l16.304-60.63v-7.133l-2.547-3.566
			C79.09,101.94,26.103,99.392,24.064,101.94z"/>
		<circle fill="#A0616A" cx="46.482" cy="-29.51" r="15.794"/>
		<path fill="#A0616A" d="M54.379-22.123c-3.201,7.13-1.306,17.087,5.096,28.022L33.489-6.329l4.077-3.566l-1.02-10.189
			L54.379-22.123z"/>
		<path fill="#337AE2" d="M54.379-5.819c3.403,2.023,5.438,5.74,6.607,9.523c2.163,7.002,3.465,14.242,3.877,21.559l1.234,21.906
			l15.285,58.082c-13.247,11.209-20.89,8.661-38.722-0.508c-17.833-9.172-19.87,3.057-19.87,3.057s-1.529-0.511,0-2.039
			c1.527-1.529,0,0-1.529-1.529c-1.528-1.527,0,0,0.51-1.527c0.51-1.529,0-0.51-0.51-1.02c-0.509-0.51,2.038-5.095,2.038-5.095
			l-4.075-38.213L14.129,4.373C20.243-3.27,37.566-9.895,37.566-9.895L53.36,1.314c5.095,2.039,1.019-6.113,1.019-6.113V-5.819z"/>
		<path fill="#A0616A" d="M5.723,36.724L3.685,67.293l25.983,37.194c0,8.661,4.586,10.699,4.586,10.699
			c1.737-2.772,3.27-5.667,4.586-8.662c2.547-5.604-1.529-10.189-1.529-10.189L19.479,58.632l7.643-18.85L5.723,36.724z"/>
		<path fill="#337AE2" d="M14.384,4.626C5.723,7.683,4.193,40.8,4.193,40.8c10.19-5.604,22.418,3.566,22.418,3.566
			s2.548-8.661,5.605-19.87c1.875-6.409,0.337-13.331-4.076-18.341C28.141,6.156,23.046,1.57,14.384,4.626z"/>
		<path fill="#2F2E41" d="M31.961-24.669c2.012-1.609,4.754,1.314,4.754,1.314l1.608-14.477c0,0,10.054,1.206,16.488-0.402
			c6.435-1.609,7.439,5.831,7.439,5.831c0.331-3.004,0.399-6.032,0.201-9.048c-0.402-3.619-5.63-7.238-14.879-9.652
			c-9.25-2.412-14.075,8.043-14.075,8.043C27.064-39.842,29.951-23.061,31.961-24.669z"/>
		<path opacity="0.1" fill="#FFC400" d="M300.44,112.396c0.633,0.023,1.189-0.417,1.311-1.041l35.131-191.209
			c0.125-0.689-0.33-1.353-1.021-1.479c-0.07-0.013-0.143-0.02-0.215-0.021l-159.824-1.862h-0.015
			c-0.595,0.002-1.108,0.415-1.241,0.993l-41.413,185.002c-0.152,0.686,0.277,1.364,0.963,1.518c0.07,0.016,0.143,0.025,0.216,0.029
			L300.44,112.396z"/>
		<path opacity="0.1" fill="#337AE2" d="M161.351,124.609c-0.296,0-0.553,0.203-0.618,0.492l-1.477,6.326
			c-0.08,0.342,0.133,0.684,0.475,0.764c0.032,0.008,0.066,0.012,0.1,0.015l83.385,5.927c0.32,0.02,0.605-0.199,0.67-0.514
			l1.418-7.318c0.068-0.344-0.156-0.678-0.5-0.744c-0.029-0.006-0.057-0.01-0.084-0.012l-83.332-4.934
			C161.375,124.611,161.362,124.609,161.351,124.609z"/>
		<path opacity="0.1" fill="#049F34" d="M262.659,161.638c0.311,0.023,0.592-0.181,0.668-0.482l1.807-7.334
			c0.084-0.342-0.125-0.686-0.467-0.77c-0.033-0.01-0.07-0.015-0.105-0.018l-106.489-7.447c-0.298-0.023-0.572,0.166-0.653,0.453
			l-1.878,6.338c-0.101,0.336,0.092,0.688,0.427,0.789c0.044,0.014,0.087,0.021,0.132,0.024L262.659,161.638z"/>
		<path opacity="0.1" fill="#F05722" d="M256.94,185.148c0.311,0.025,0.594-0.18,0.668-0.481l1.807-7.335
			c0.084-0.34-0.125-0.686-0.467-0.77c-0.033-0.008-0.07-0.014-0.105-0.017l-106.489-7.447c-0.298-0.024-0.572,0.166-0.653,0.453
			l-1.878,6.339c-0.101,0.336,0.092,0.688,0.427,0.788c0.044,0.013,0.087,0.021,0.132,0.024L256.94,185.148z"/>
		<path fill="#ED2631" d="M207.896,225.482c0.313,0.032,0.602-0.174,0.676-0.48l3.821-15.281c0.086-0.342-0.123-0.687-0.463-0.771
			c-0.033-0.009-0.066-0.015-0.102-0.016l-65.395-5.502c-0.314-0.021-0.599,0.188-0.672,0.496l-3.261,14.666
			c-0.075,0.344,0.142,0.684,0.484,0.759c0.024,0.005,0.051,0.011,0.077,0.013L207.896,225.482z"/>
	</g>
</g>
</svg>
