<svg xmlns="http://www.w3.org/2000/svg" width="500" height="372.561" viewBox="0 0 500 372.561">
  <g id="idea_auto-atencion" data-name="idea auto-atencion" transform="translate(17525 -13233)">
    <rect id="Rect치ngulo_2241" data-name="Rect치ngulo 2241" width="500" height="372.56" transform="translate(-17525 13233)" fill="none"/>
    <g id="idea_auto-atencion-2" data-name="idea auto-atencion" transform="translate(-17549.551 13146.87)">
      <g id="idea_auto-atencion-3" data-name="idea auto-atencion" transform="translate(73.551 267.497)">
        <path id="Trazado_3275" data-name="Trazado 3275" d="M132.3,408.87c78.333,37.331,205.329,37.342,283.662,0s78.321-97.862,0-135.192-205.329-37.331-283.662,0S53.975,371.54,132.3,408.87Z" transform="translate(-73.551 -245.68)" fill="#f5f5f5"/>
      </g>
      <g id="idea_auto-atencion-4" data-name="idea auto-atencion" transform="translate(389.564 378.204)">
        <ellipse id="Elipse_52" data-name="Elipse 52" cx="26.122" cy="12.447" rx="26.122" ry="12.447" fill="#ebebeb"/>
      </g>
      <g id="idea_auto-atencion-5" data-name="idea auto-atencion" transform="translate(101.589 239.723)">
        <path id="Trazado_3276" data-name="Trazado 3276" d="M120,360.444l9.242-5.331a36.989,36.989,0,0,0,11.367-15.994c2.853-7.866,2.455-13.845.409-16.846-2.512-3.694-9.026-3.046-9.287,4.729C131.186,342.324,126.718,352.953,120,360.444Z" transform="translate(-95.238 -207.73)" fill="#009cda"/>
        <path id="Trazado_3277" data-name="Trazado 3277" d="M120,360.444l9.242-5.331a36.989,36.989,0,0,0,11.367-15.994c2.853-7.866,2.455-13.845.409-16.846-2.512-3.694-9.026-3.046-9.287,4.729C131.186,342.324,126.718,352.953,120,360.444Z" transform="translate(-95.238 -207.73)" opacity="0.2"/>
        <path id="Trazado_3278" data-name="Trazado 3278" d="M120.068,360.58a.568.568,0,0,1-.318-1.034c21.371-14.778,17.233-35.387,17.187-35.591a.581.581,0,0,1,1.137-.239c0,.216,4.365,21.53-17.642,36.762a.591.591,0,0,1-.364.1Z" transform="translate(-95.305 -207.298)" fill="#fff"/>
        <path id="Trazado_3279" data-name="Trazado 3279" d="M104.461,371.871s-3.217-2.614-2.444-6.161,2.853-6.093-.7-10.663-4.547-10.663-.3-13.959c3.24-2.558,8.3,1.057,10.117-5.684,1.341-4.933.887-15.858,7.173-19.5s10.231,1.841,9.242,9.253c-.864,6.627-2.092,13-1.137,14.778,1.842,3.41,4.99,2.944,4.843,9.173-.125,5.8-5.615,10.594-5.615,10.594Z" transform="translate(-98.216 -208.461)" fill="#009cda"/>
        <path id="Trazado_3280" data-name="Trazado 3280" d="M113.114,365.465a.58.58,0,0,1-.568-.5c-1.626-13.47,2.273-36.728,5.456-43.639a.568.568,0,0,1,.8-.318.557.557,0,0,1,.273.75c-3.149,6.82-6.911,30.146-5.354,43.026a.568.568,0,0,1-.5.625Z" transform="translate(-96.309 -207.614)" fill="#fff"/>
        <path id="Trazado_3281" data-name="Trazado 3281" d="M113.552,352.074a.477.477,0,0,1-.25-.057c-3.944-1.921-6.445-8.776-6.548-9.094a.568.568,0,1,1,1.069-.387c0,.068,2.444,6.707,5.979,8.423a.568.568,0,0,1-.25,1.08Z" transform="translate(-97.054 -204.715)" fill="#fff"/>
        <path id="Trazado_3282" data-name="Trazado 3282" d="M112.738,356.331a.557.557,0,0,1-.523-.364.568.568,0,0,1,.307-.739c6.639-2.66,10.776-10.56,10.822-10.651a.569.569,0,0,1,1.012.523c-.182.341-4.376,8.366-11.367,11.186a.488.488,0,0,1-.25.046Z" transform="translate(-96.308 -204.425)" fill="#fff"/>
        <path id="Trazado_3283" data-name="Trazado 3283" d="M317.466,307.022s-4.968-8.048-5.456-16.79,1.432-12.379,4.07-13.425,2.842,2.171,4.195,4.069,4.115.818,5.138-5.1,4.752-15.914,12.5-17.858c8.526-2.114,3.956,7.889,1.807,11.788s-3.808,9.219-2.4,10.663,3.6-1.228,5.684,1.25c2.535,2.99-5.343,13.755-9.867,16.358Z" transform="translate(-68.993 -216.273)" fill="#009cda"/>
        <path id="Trazado_3284" data-name="Trazado 3284" d="M322.856,302.968h0a.568.568,0,0,1-.546-.591,81.845,81.845,0,0,1,12.732-39.559.557.557,0,0,1,.8-.125.568.568,0,0,1,.125.784,80.8,80.8,0,0,0-12.5,38.956.568.568,0,0,1-.6.534Z" transform="translate(-67.574 -215.595)" fill="#fff"/>
        <path id="Trazado_3285" data-name="Trazado 3285" d="M324,293.166a.6.6,0,0,1-.273-.068c-3.183-1.762-4.945-6.991-5.013-7.207a.564.564,0,1,1,1.069-.364s1.705,5.036,4.547,6.57a.58.58,0,0,1,.216.773A.557.557,0,0,1,324,293.166Z" transform="translate(-68.07 -212.511)" fill="#fff"/>
        <path id="Trazado_3286" data-name="Trazado 3286" d="M323.918,290.109a.568.568,0,0,1-.546-.432.557.557,0,0,1,.409-.682c8.207-2.08,11.049-6.377,11.072-6.423a.572.572,0,1,1,.966.614c-.125.193-3.081,4.706-11.754,6.911Z" transform="translate(-67.431 -212.898)" fill="#fff"/>
        <path id="Trazado_3287" data-name="Trazado 3287" d="M213.005,294.331s-10.9-2.66-11.47-23.076c-.6-22.03,2.671-47.743-10.231-49.823s-20.063,13.641-19.9,32c.148,16.073,6.627,50.971,41.559,57.815Z" transform="translate(-88.21 -221.247)" fill="#009cda"/>
        <path id="Trazado_3288" data-name="Trazado 3288" d="M213.005,294.331s-10.9-2.66-11.47-23.076c-.6-22.03,2.671-47.743-10.231-49.823s-20.063,13.641-19.9,32c.148,16.073,6.627,50.971,41.559,57.815Z" transform="translate(-88.21 -221.247)" opacity="0.2"/>
        <path id="Trazado_3289" data-name="Trazado 3289" d="M211.508,308.272h-.1c-7.855-1.432-14.255-5.763-19.018-12.857-14.118-21.064-9.674-60.4-8.207-67.261a.58.58,0,0,1,.671-.443.591.591,0,0,1,.443.682c-1.444,6.82-5.866,45.652,8.037,66.386a27.418,27.418,0,0,0,18.279,12.368.568.568,0,0,1,.455.671A.557.557,0,0,1,211.508,308.272Z" transform="translate(-86.712 -220.364)" fill="#fff"/>
        <path id="Trazado_3290" data-name="Trazado 3290" d="M216.116,356.929c-11.265,1.523-29.555,1.5-40.116-6.82s-8.355-15.482-4.3-18.472,7.582-6.4.6-13.038-18.188-17.3-21.825-33.3-1.842-26,5.3-29.328c6.923-3.228,8.753,1.91,12.993,12.5s13.777,1.512,21.939,4.82,7.832,9.856,8.344,15.482,3.206,7.184,7.832,7.184,9.23,2.66,9.23,7.957Z" transform="translate(-91.32 -216.629)" fill="#009cda"/>
        <path id="Trazado_3291" data-name="Trazado 3291" d="M214.733,335.739a.341.341,0,0,1-.148,0c-.489-.136-12.14-3.524-29.112-19.109-18.074-16.6-26.6-41.491-26.691-41.741a.58.58,0,0,1,.364-.716.568.568,0,0,1,.716.352c.08.25,8.526,24.872,26.384,41.264,16.733,15.38,28.521,18.824,28.646,18.859a.568.568,0,0,1,.386.7.557.557,0,0,1-.546.387Z" transform="translate(-89.938 -214.014)" fill="#fff"/>
        <path id="Trazado_3292" data-name="Trazado 3292" d="M187.04,318.755a.546.546,0,0,1-.523-.364c-3.649-9.367-4.479-29.408-4.547-30.26a.58.58,0,0,1,.546-.591.6.6,0,0,1,.591.546c0,.2.853,20.7,4.433,29.9a.568.568,0,0,1-.33.739.59.59,0,0,1-.171.034Z" transform="translate(-86.764 -212.182)" fill="#fff"/>
        <path id="Trazado_3293" data-name="Trazado 3293" d="M186.788,327.48a26.856,26.856,0,0,1-3.137-.159.572.572,0,0,1,.136-1.137c.1,0,10.685,1.2,15.539-3.74a.568.568,0,1,1,.807.8C196.621,326.866,190.494,327.48,186.788,327.48Z" transform="translate(-86.603 -207.437)" fill="#fff"/>
      </g>
      <g id="idea_auto-atencion-6" data-name="idea auto-atencion" transform="translate(101.605 86.13)">
        <path id="Trazado_3294" data-name="Trazado 3294" d="M184.523,139.329l-1.228-7.082-6.32,4.16a8.764,8.764,0,0,0-2.4-2.921L177.6,125.3l-5.684-1.262L167.756,132a15.493,15.493,0,0,0-4.331,1.41l-1.807-6-6.752,5.309.443,7.048a37.935,37.935,0,0,0-3.728,4.933l-5.57-.284-3.91,8.764,4.786,2.046a28.055,28.055,0,0,0-.944,5.547l-6.082,5.593,1.216,7.093,6.332-4.16a8.594,8.594,0,0,0,2.4,2.91l-2.967,8.2,5.684,1.25,5.957-5.8c1.375-.216,1.034-2.808,2.535-3.547l1.807,5.979,6.741-5.3-.171-2.774c1.364-1.523,6.525-4.877,7.639-6.627l1.4-2.273,3.91-8.764-1.819-3.3-2.023-4.3Zm-20.632,23.315c-5.184,4.07-6.82,4.968-7.7-.477s2.092-13.72,7.275-17.8,7.161-4.365,8.094,1.069S169.086,158.62,163.891,162.644Z" transform="translate(-92.537 -80.946)" fill="#e0e0e0"/>
        <path id="Trazado_3295" data-name="Trazado 3295" d="M168.6,124.04l7.377,4.251-4.16,7.934-7.377-4.251Z" transform="translate(-89.176 -80.946)" fill="#f5f5f5"/>
        <path id="Trazado_3296" data-name="Trazado 3296" d="M186.208,135.511l-6.32,4.16-7.377-4.251,6.32-4.16Z" transform="translate(-88.073 -79.959)" fill="#f5f5f5"/>
        <path id="Trazado_3297" data-name="Trazado 3297" d="M185.133,153.586l-4.786-2.035L172.97,147.3l4.786,2.035Z" transform="translate(-88.01 -77.766)" fill="#e0e0e0"/>
        <path id="Trazado_3298" data-name="Trazado 3298" d="M145.99,174.606l7.377,4.24,3.024-8.185-7.377-4.251Z" transform="translate(-91.699 -75.152)" fill="#e0e0e0"/>
        <path id="Trazado_3299" data-name="Trazado 3299" d="M167.594,176.731l-7.366-4.251L158.42,166.5l7.377,4.251Z" transform="translate(-90 -75.14)" fill="#e0e0e0"/>
        <path id="Trazado_3300" data-name="Trazado 3300" d="M191,143.069l-1.216-7.082-6.32,4.16a8.8,8.8,0,0,0-2.41-2.921l3.024-8.185-5.627-1.262-4.172,7.957a15.494,15.494,0,0,0-4.331,1.41l-1.8-5.979-6.752,5.309.443,7.048a37.931,37.931,0,0,0-3.729,4.968l-5.581-.284-3.91,8.764,4.786,2.046a28.874,28.874,0,0,0-.943,5.559l-6.07,5.513,1.216,7.093,6.32-4.16a8.753,8.753,0,0,0,2.41,2.91l-3.024,8.185L159,185.379l4.16-7.957A15.13,15.13,0,0,0,167.5,176l1.8,5.979,6.752-5.3-.443-7.048a37.933,37.933,0,0,0,3.729-4.933l5.581.273,3.91-8.764-4.854-2.035a28.2,28.2,0,0,0,.955-5.559Zm-20.609,23.36c-5.172,4.07-10.128,2.967-11.072-2.467s2.5-13.152,7.684-17.222,10.128-2.956,11.072,2.478S175.57,162.36,170.387,166.429Z" transform="translate(-91.645 -80.435)" fill="#ebebeb"/>
        <path id="Trazado_3301" data-name="Trazado 3301" d="M167.23,131.251,159.852,127l-6.752,5.309,7.377,4.251Z" transform="translate(-90.727 -80.541)" fill="#f5f5f5"/>
        <path id="Trazado_3302" data-name="Trazado 3302" d="M153.1,131.67l.443,7.048,7.377,4.251-.443-7.048Z" transform="translate(-90.727 -79.903)" fill="#e0e0e0"/>
        <path id="Trazado_3303" data-name="Trazado 3303" d="M158.257,146.494l-7.377-4.251-5.57-.273,7.366,4.251Z" transform="translate(-91.792 -78.494)" fill="#f5f5f5"/>
        <path id="Trazado_3304" data-name="Trazado 3304" d="M145.78,141.97l-3.91,8.753,7.366,4.251,3.91-8.753Z" transform="translate(-92.263 -78.494)" fill="#e0e0e0"/>
        <path id="Trazado_3305" data-name="Trazado 3305" d="M153.348,160.6l-7.366-4.251-6.082,5.593,7.366,4.251Z" transform="translate(-92.532 -76.528)" fill="#f5f5f5"/>
        <path id="Trazado_3306" data-name="Trazado 3306" d="M148.494,172.615l-7.377-4.251L139.9,161.27l7.366,4.251Z" transform="translate(-92.532 -75.855)" fill="#e0e0e0"/>
        <path id="Trazado_3307" data-name="Trazado 3307" d="M175.477,128.291,168.1,124.04l5.638,1.262,7.366,4.251Z" transform="translate(-88.676 -80.946)" fill="#f5f5f5"/>
        <path id="Trazado_3308" data-name="Trazado 3308" d="M157.181,112.366V101.783l-8.423,3.8a15.187,15.187,0,0,0-2.273-5.013l5.309-10.7-6.479-3.74L138.7,96.076a15.016,15.016,0,0,0-5.479.534l-.932-9.2-9.162,5.3-.921,10.231a45.106,45.106,0,0,0-5.479,5.8l-6.616-2.273L103.629,117.7l5.3,4.547a45.71,45.71,0,0,0-2.273,7.639l-8.423,5.922V146.4l8.423-3.8a15.187,15.187,0,0,0,2.273,5.013l-5.274,10.708,6.479,3.74,6.616-9.946a15.04,15.04,0,0,0,5.479-.534l.921,9.2,9.162-5.3.932-10.231a17.278,17.278,0,0,0,7.343-5.161l4.752,1.671,6.479-11.22-3.979-3.41a23.656,23.656,0,0,0,.943-8.787Zm-29.476,26.441c-7.025,4.058-11.367,1.137-11.367-6.945s5.809-18.074,12.845-22.132,11.288-1.137,11.288,7.014-5.729,17.995-12.766,22.064Z" transform="translate(-98.23 -86.13)" fill="#e0e0e0"/>
        <path id="Trazado_3309" data-name="Trazado 3309" d="M147.812,90.37l-7.366-4.24-6.616,9.946,7.366,4.251Z" transform="translate(-93.362 -86.13)" fill="#f5f5f5"/>
        <path id="Trazado_3310" data-name="Trazado 3310" d="M158.481,104.151,151.1,99.9l-8.423,3.8,7.377,4.251Z" transform="translate(-92.152 -84.247)" fill="#f5f5f5"/>
        <path id="Trazado_3311" data-name="Trazado 3311" d="M127.607,157.158l-7.366-4.251-.921-9.2,7.366,4.251Z" transform="translate(-95.346 -78.257)" fill="#e0e0e0"/>
        <path id="Trazado_3312" data-name="Trazado 3312" d="M102.97,150.927l7.377,4.251,5.309-10.7-7.377-4.251Z" transform="translate(-97.582 -78.732)" fill="#e0e0e0"/>
        <path id="Trazado_3313" data-name="Trazado 3313" d="M163.671,116.161V105.578l-8.423,3.763a14.971,14.971,0,0,0-2.273-5.013l5.309-10.7L151.8,89.88l-6.616,9.958a14.777,14.777,0,0,0-5.479.534l-.932-9.219-9.162,5.3-.932,10.231a45.9,45.9,0,0,0-5.479,5.8l-6.616-2.273-6.479,11.231,5.309,4.547a44.661,44.661,0,0,0-2.273,7.639l-8.423,5.922v10.594l8.423-3.8a14.96,14.96,0,0,0,2.273,5.013l-5.309,10.7,6.479,3.74,6.616-9.946a15.017,15.017,0,0,0,5.479-.534l.932,9.2,9.162-5.3.921-10.231a45.1,45.1,0,0,0,5.479-5.8l6.616,2.273,6.479-11.22-5.309-4.547a44.72,44.72,0,0,0,2.273-7.639ZM134.2,142.6c-7.036,4.058-12.743.762-12.743-7.355s5.684-17.995,12.743-22.064,12.732-.762,12.732,7.355-5.706,17.938-12.732,22.007Z" transform="translate(-97.343 -85.617)" fill="#ebebeb"/>
        <path id="Trazado_3314" data-name="Trazado 3314" d="M115.3,106.319l7.366,4.251-6.616-2.308L108.68,104Z" transform="translate(-96.801 -83.686)" fill="#f0f0f0"/>
        <rect id="Rect치ngulo_463" data-name="Rect치ngulo 463" width="12.97" height="8.514" transform="translate(5.397 31.56) rotate(-60.02)" fill="#f5f5f5"/>
        <path id="Trazado_3315" data-name="Trazado 3315" d="M102.97,113.88l7.377,4.251,5.309,4.57-7.377-4.24Z" transform="translate(-97.582 -82.335)" fill="#e0e0e0"/>
        <path id="Trazado_3316" data-name="Trazado 3316" d="M106.653,124.63l7.377,4.251-8.423,5.922-7.377-4.251Z" transform="translate(-98.23 -80.866)" fill="#f5f5f5"/>
        <path id="Trazado_3317" data-name="Trazado 3317" d="M98.23,129.84l7.377,4.251v10.594l-7.377-4.251Z" transform="translate(-98.23 -80.153)" fill="#e0e0e0"/>
        <path id="Trazado_3318" data-name="Trazado 3318" d="M136.67,91.511l-7.377-4.251-9.162,5.3,7.366,4.251Z" transform="translate(-95.235 -85.975)" fill="#f5f5f5"/>
      </g>
      <g id="idea_auto-atencion-7" data-name="idea auto-atencion" transform="translate(222.953 86.169)">
        <path id="Trazado_3319" data-name="Trazado 3319" d="M219.644,366.486l106.854-61.7a1.2,1.2,0,0,0,0-2.273l-9.878-5.684a4.388,4.388,0,0,0-3.945,0L205.787,358.472a1.2,1.2,0,0,0,0,2.273l9.912,5.684A4.388,4.388,0,0,0,219.644,366.486Z" transform="translate(-204.982 -57.422)" fill="#e0e0e0"/>
        <path id="Trazado_3320" data-name="Trazado 3320" d="M321.482,94.281l-96.35,55.632a10.89,10.89,0,0,0-4.922,8.526V387c0,3.137,2.205,4.411,4.922,2.842l96.35-55.632a10.856,10.856,0,0,0,4.922-8.526V97.123C326.4,93.985,324.21,92.712,321.482,94.281Z" transform="translate(-202.899 -85.146)" fill="#455a64"/>
        <path id="Trazado_3321" data-name="Trazado 3321" d="M226.625,150.931,322.975,95.3c2.433-1.41,4.445-.534,4.854,1.91a11,11,0,0,0-4.854-7.593l-4-2.273a10.879,10.879,0,0,0-9.844,0l-96.361,55.587a10.128,10.128,0,0,0-3.478,3.672l13.857,7.957a9.947,9.947,0,0,1,3.478-3.626Z" transform="translate(-204.392 -86.164)" fill="#37474f"/>
        <path id="Trazado_3322" data-name="Trazado 3322" d="M208,372.743a10.89,10.89,0,0,0,4.922,8.526l4.013,2.273a11.027,11.027,0,0,0,9,.387c-2.273.887-4.081-.421-4.081-3.228V152.181a10,10,0,0,1,1.444-4.854l-13.857-7.957A10.128,10.128,0,0,0,208,144.178Z" transform="translate(-204.569 -78.889)" fill="#263238"/>
        <path id="Trazado_3323" data-name="Trazado 3323" d="M227.221,176.3l91.087-52.574c1.637-.932,2.956-.171,2.956,1.705V294.6a6.513,6.513,0,0,1-2.956,5.115l-91.053,52.574c-1.637.943-2.956.182-2.956-1.705V181.417a6.525,6.525,0,0,1,2.921-5.115Z" transform="translate(-202.34 -81.082)" fill="#fff"/>
        <path id="Trazado_3324" data-name="Trazado 3324" d="M267.128,126.318a3.842,3.842,0,0,0-1.728,3c0,1.137.773,1.557,1.728,1a3.808,3.808,0,0,0,1.728-3C268.856,126.216,268.083,125.772,267.128,126.318Z" transform="translate(-196.72 -80.706)" fill="#37474f"/>
        <path id="Trazado_3325" data-name="Trazado 3325" d="M267.74,308.852a15.119,15.119,0,0,0-6.82,11.845c0,4.354,3.058,6.127,6.82,3.945a15.13,15.13,0,0,0,6.82-11.845C274.584,308.443,271.514,306.67,267.74,308.852Z" transform="translate(-197.333 -55.842)" fill="#37474f"/>
        <path id="Trazado_3326" data-name="Trazado 3326" d="M252.94,141.827a7.65,7.65,0,0,0-3.41,6c0,2.205,1.546,3.1,3.41,2a7.65,7.65,0,0,0,3.467-6C256.407,141.622,254.861,140.724,252.94,141.827Z" transform="translate(-198.89 -78.618)" fill="#37474f"/>
        <path id="Trazado_3327" data-name="Trazado 3327" d="M260,143.226c0,1.478,1.137,2.035,2.467,1.25L285.2,131.324a5.274,5.274,0,0,0,2.467-4.092c0-1.466-1.137-2.023-2.467-1.239l-22.735,13.152A5.275,5.275,0,0,0,260,143.226Z" transform="translate(-197.458 -80.767)" fill="#37474f"/>
        <path id="Trazado_3328" data-name="Trazado 3328" d="M215.092,176.415a6.127,6.127,0,0,1,2.774,4.8c0,1.773-1.239,2.489-2.774,1.6a6.139,6.139,0,0,1-2.762-4.8C212.33,176.256,213.569,175.54,215.092,176.415Z" transform="translate(-203.977 -73.875)" fill="#37474f"/>
        <path id="Trazado_3329" data-name="Trazado 3329" d="M215.092,195.2a6.127,6.127,0,0,1,2.774,4.8c0,1.762-1.239,2.478-2.774,1.6a6.138,6.138,0,0,1-2.762-4.8C212.33,195.025,213.569,194.309,215.092,195.2Z" transform="translate(-203.977 -71.307)" fill="#37474f"/>
        <path id="Trazado_3330" data-name="Trazado 3330" d="M214.334,176.794a6.127,6.127,0,0,1,2.774,4.8c0,1.762-1.239,2.478-2.774,1.6a6.127,6.127,0,0,1-2.774-4.8C211.571,176.623,212.81,175.941,214.334,176.794Z" transform="translate(-204.082 -73.822)" fill="#455a64"/>
        <path id="Trazado_3331" data-name="Trazado 3331" d="M214.334,195.565a6.127,6.127,0,0,1,2.774,4.808c0,1.762-1.239,2.478-2.774,1.591a6.093,6.093,0,0,1-2.774-4.8C211.571,195.406,212.81,194.69,214.334,195.565Z" transform="translate(-204.082 -71.256)" fill="#455a64"/>
        <path id="Trazado_3332" data-name="Trazado 3332" d="M337.484,130.144c0-1.887-1.319-2.649-2.956-1.705l-10.9,6.286-80.152,46.288a6.513,6.513,0,0,0-2.955,5.115V355.253c0,1.887,1.319,2.649,2.956,1.705l80.186-46.3,10.867-6.275a6.513,6.513,0,0,0,2.956-5.115Z" transform="translate(-200.122 -80.439)" fill="#fff"/>
        <path id="Trazado_3333" data-name="Trazado 3333" d="M338.759,130.285a2.921,2.921,0,0,0-4.661-2.694L323.7,133.6h0l-80.652,46.606a7.571,7.571,0,0,0-3.524,6.1V355.394a3.149,3.149,0,0,0,1.432,2.9,2.6,2.6,0,0,0,1.341.352,3.888,3.888,0,0,0,1.887-.557l80.709-46.606h0l10.378-5.991a7.673,7.673,0,0,0,3.524-6.1ZM323.72,309.538h0l-.932.546h0l-79.7,46.015a1.137,1.137,0,0,1-.955.2c-.148-.091-.3-.409-.3-.932V186.27a5.468,5.468,0,0,1,2.387-4.138l79.617-46.038h0l11.367-6.582a1.137,1.137,0,0,1,.955-.2c.148.091.3.409.3.932v169.17a5.468,5.468,0,0,1-2.387,4.138L323.7,309.538Z" transform="translate(-200.26 -80.581)" fill="#009cda"/>
        <path id="Trazado_3334" data-name="Trazado 3334" d="M285.392,164.764c10.231-5.888,18.472-1.137,18.472,10.674s-8.275,26.145-18.472,31.988-18.472,1.137-18.472-10.663S275.2,170.664,285.392,164.764Z" transform="translate(-196.512 -75.762)" fill="#009cda"/>
        <path id="Trazado_3335" data-name="Trazado 3335" d="M283.891,172.719c3.308-1.91,5.991-.364,5.991,3.41a13.243,13.243,0,0,1-5.991,10.378c-3.308,1.91-5.991.364-5.991-3.41A13.243,13.243,0,0,1,283.891,172.719Z" transform="translate(-195.011 -74.441)" fill="#009cda"/>
        <path id="Trazado_3336" data-name="Trazado 3336" d="M296.219,191.385c0-6.275-4.4-8.821-9.844-5.684l-3.41,1.967c-5.434,3.137-9.844,10.776-9.844,17.051v1.694c3.149,1.034,7.1.477,11.367-2.012a36.376,36.376,0,0,0,11.674-11.561Z" transform="translate(-195.664 -72.737)" fill="#009cda"/>
        <path id="Trazado_3337" data-name="Trazado 3337" d="M283.891,172.719c3.308-1.91,5.991-.364,5.991,3.41a13.243,13.243,0,0,1-5.991,10.378c-3.308,1.91-5.991.364-5.991-3.41A13.243,13.243,0,0,1,283.891,172.719Z" transform="translate(-195.011 -74.441)" fill="#fff" opacity="0.7"/>
        <path id="Trazado_3338" data-name="Trazado 3338" d="M296.219,191.385c0-6.275-4.4-8.821-9.844-5.684l-3.41,1.967c-5.434,3.137-9.844,10.776-9.844,17.051v1.694c3.149,1.034,7.1.477,11.367-2.012a36.376,36.376,0,0,0,11.674-11.561Z" transform="translate(-195.664 -72.737)" fill="#fff" opacity="0.7"/>
        <path id="Trazado_3339" data-name="Trazado 3339" d="M251.967,226.523l23.769-13.72c1.137-.625,1.967-.125,1.967,1.137v.784a4.342,4.342,0,0,1-1.967,3.41l-23.769,13.72c-1.08.625-1.967.114-1.967-1.137v-.784A4.354,4.354,0,0,1,251.967,226.523Z" transform="translate(-198.826 -68.885)" fill="#009cda"/>
        <path id="Trazado_3340" data-name="Trazado 3340" d="M251.967,226.523l23.769-13.72c1.137-.625,1.967-.125,1.967,1.137v.784a4.342,4.342,0,0,1-1.967,3.41l-23.769,13.72c-1.08.625-1.967.114-1.967-1.137v-.784A4.354,4.354,0,0,1,251.967,226.523Z" transform="translate(-198.826 -68.885)" opacity="0.1"/>
        <path id="Trazado_3341" data-name="Trazado 3341" d="M250.989,244.42l71.91-41.514c.534-.318.978-.068.978.568v8.389a2.205,2.205,0,0,1-.978,1.705l-71.91,41.514c-.546.318-.989.057-.989-.568v-8.389a2.183,2.183,0,0,1,.989-1.705Z" transform="translate(-198.826 -70.22)" fill="#009cda"/>
        <path id="Trazado_3342" data-name="Trazado 3342" d="M250.989,244.42l71.91-41.514c.534-.318.978-.068.978.568v8.389a2.205,2.205,0,0,1-.978,1.705l-71.91,41.514c-.546.318-.989.057-.989-.568v-8.389a2.183,2.183,0,0,1,.989-1.705Z" transform="translate(-198.826 -70.22)" fill="#fff" opacity="0.2"/>
        <path id="Trazado_3343" data-name="Trazado 3343" d="M251.967,259.353l23.769-13.72c1.137-.625,1.967-.114,1.967,1.137v.784a4.331,4.331,0,0,1-1.967,3.41l-23.769,13.72c-1.08.637-1.967.125-1.967-1.137v-.784a4.376,4.376,0,0,1,1.967-3.41Z" transform="translate(-198.826 -64.395)" fill="#009cda"/>
        <path id="Trazado_3344" data-name="Trazado 3344" d="M251.967,259.353l23.769-13.72c1.137-.625,1.967-.114,1.967,1.137v.784a4.331,4.331,0,0,1-1.967,3.41l-23.769,13.72c-1.08.637-1.967.125-1.967-1.137v-.784a4.376,4.376,0,0,1,1.967-3.41Z" transform="translate(-198.826 -64.395)" opacity="0.1"/>
        <path id="Trazado_3345" data-name="Trazado 3345" d="M250.989,277.25l71.91-41.514c.534-.318.978-.057.978.568v8.389a2.205,2.205,0,0,1-.978,1.705l-71.91,41.514c-.546.318-.989.068-.989-.568v-8.389a2.183,2.183,0,0,1,.989-1.705Z" transform="translate(-198.826 -65.731)" fill="#009cda"/>
        <path id="Trazado_3346" data-name="Trazado 3346" d="M250.989,277.25l71.91-41.514c.534-.318.978-.057.978.568v8.389a2.205,2.205,0,0,1-.978,1.705l-71.91,41.514c-.546.318-.989.068-.989-.568v-8.389a2.183,2.183,0,0,1,.989-1.705Z" transform="translate(-198.826 -65.731)" fill="#fff" opacity="0.2"/>
        <path id="Trazado_3347" data-name="Trazado 3347" d="M276.337,278.433l28.418-16.38c1.137-.637,1.978-.125,1.978,1.137v8.776a4.342,4.342,0,0,1-1.978,3.41l-28.418,16.392c-1.137.625-1.967.114-1.967-1.137v-8.787A4.388,4.388,0,0,1,276.337,278.433Z" transform="translate(-195.493 -62.151)" fill="#009cda"/>
        <path id="Trazado_3348" data-name="Trazado 3348" d="M276.337,278.433l28.418-16.38c1.137-.637,1.978-.125,1.978,1.137v8.776a4.342,4.342,0,0,1-1.978,3.41l-28.418,16.392c-1.137.625-1.967.114-1.967-1.137v-8.787A4.388,4.388,0,0,1,276.337,278.433Z" transform="translate(-195.493 -62.151)" opacity="0.1"/>
      </g>
      <g id="idea_auto-atencion-8" data-name="idea auto-atencion" transform="translate(342.197 207.055)">
        <path id="Trazado_3349" data-name="Trazado 3349" d="M338.776,248.476S324.817,229.22,324,226.878c-.648-1.728,0-4.3.2-5.49s.386-3.854.591-4.547c.341-1.3-1.33-1.034-2.273.148s-1.262,3.547-1.751,3.933-4.206-5.036-6.15-7.537-3.16-4.024-4.354-3.092c-.853.671-.216,2.126,1.194,4.263a38.383,38.383,0,0,1,2.273,3.581c.216.466-.943.5-1.569,1.466-.489.75,0,1.967-.682,2.546a2.148,2.148,0,0,0-.546,2.808,18.572,18.572,0,0,0,4.808,5.093c2.092,1.444,2.933,1.955,4.172,3.922s12.356,22.053,13.107,23.258,2.194,3.66,4.388,3.728,20.154-15.391,21.075-16.164c2.956-2.467,3.9-2.819,4.4-.6a21.888,21.888,0,0,1,.386,2.387c.352,2.819,2.273,12.891,2.273,12.891s9.094,4.4,16.562,2.273,9.992-5.3,9.992-5.3l-3.74-6.093c1.012-2.512,5.684-12.7,7.2-19.825l-23.417-3.785c-.477-.1-1.25-.3-2.273-.557-1.285-.341-4.547-1.466-7.014.693-8.048,7.014-24.053,21.6-24.053,21.6" transform="translate(-309.881 -190.114)" fill="#ffa8a7"/>
        <path id="Trazado_3350" data-name="Trazado 3350" d="M376.645,347.812l-4.195,5.832a13.937,13.937,0,0,0,6.093,1.307c3.763.136,4.8-1.137,4.933-1.387.637-1.364-.352-3.819-.625-5.934Z" transform="translate(-301.326 -171.297)" fill="#37474f"/>
        <path id="Trazado_3351" data-name="Trazado 3351" d="M374.372,350.56s-5.093-.33-8.605-.762-6.3,1.273-5.479,2.717,2.762,2.649,5.786,3.66c2.58.875,5.684,1.5,8.366,2.273s4.547,1.785,6.1,1.239c1.739-.6,2.489-1.3,2.342-2.569a55.183,55.183,0,0,0-1.41-5.365Z" transform="translate(-303.009 -171.01)" fill="#37474f"/>
        <path id="Trazado_3352" data-name="Trazado 3352" d="M382.991,342.715s-.637,5.3-.682,6.434-5.172,1.5-6.15-.58L376,342.09Z" transform="translate(-300.84 -172.055)" fill="#f28f8f"/>
        <path id="Trazado_3353" data-name="Trazado 3353" d="M379.383,345.5l1.83,8.048s.171.978-4.013,1.6-10.754-2.194-11.879-2.762-1.25-1.716,2.865-1.489,5.57.239,5.57.239l-1.341-3.558Z" transform="translate(-302.393 -171.588)" fill="#ffa8a7"/>
        <path id="Trazado_3354" data-name="Trazado 3354" d="M385.816,228.1l2.9-.807s6.059,19.177,6.73,21.03,1.432,3.808.125,6.093c-1.557,2.717-9.753,13.641-9.753,13.641l-5.206-5.093,5.911-10.822-5.229-10.572Z" transform="translate(-300.21 -187.752)" fill="#f28f8f"/>
        <path id="Trazado_3355" data-name="Trazado 3355" d="M359.121,207.947a8.548,8.548,0,0,1,.125-8.264c2.887-5.354,9.321-7.957,16.983-6.968,3.547.466,7.73,3.41,10.015,7.809,2.524,4.877,2.762,14.7,3.41,18.415Z" transform="translate(-303.286 -192.508)" fill="#37474f"/>
        <path id="Trazado_3356" data-name="Trazado 3356" d="M359.005,207.94s-1.819,3.467-1.5,3.785a4.763,4.763,0,0,0,1.523.568Z" transform="translate(-303.375 -190.398)" fill="#ffa8a7"/>
        <path id="Trazado_3357" data-name="Trazado 3357" d="M364.348,198.47c-1.978,1.285-5.388,3.649-5.536,11.436-.159,7.957.978,10.583,2.16,11.5.8.625,5.468.307,7.468-.159s7.764-3.319,9.844-7.65c2.444-5.093,1.944-12.5-1.682-14.778a12.663,12.663,0,0,0-12.254-.352Z" transform="translate(-303.193 -191.886)" fill="#ffa8a7"/>
        <path id="Trazado_3358" data-name="Trazado 3358" d="M383.517,250.82c3.5,5.456,6.82,10.231,7.548,16.392,1.5,12.948-3.41,27.748-4.467,37.331a17.267,17.267,0,0,1,3.3,9.344c0,3.967-6.377,41.309-6.377,41.309s-4.638,1.41-6.991-.625l-4.376-68.693,2.273-8.366Z" transform="translate(-301.367 -184.535)" fill="#009cda"/>
        <path id="Trazado_3359" data-name="Trazado 3359" d="M383.517,250.82c3.5,5.456,6.82,10.231,7.548,16.392,1.5,12.948-3.41,27.748-4.467,37.331a17.267,17.267,0,0,1,3.3,9.344c0,3.967-6.377,41.309-6.377,41.309s-4.638,1.41-6.991-.625l-4.376-68.693,2.273-8.366Z" transform="translate(-301.367 -184.535)" opacity="0.2"/>
        <path id="Trazado_3360" data-name="Trazado 3360" d="M372.15,283.264l2.273-8.366a55.848,55.848,0,0,0,12.5-4.968s-2.364,4.308-9.162,6.673l-3.513,10.742-.3,24.61Z" transform="translate(-301.367 -181.922)" fill="#009cda"/>
        <path id="Trazado_3361" data-name="Trazado 3361" d="M372.15,283.264l2.273-8.366a55.848,55.848,0,0,0,12.5-4.968s-2.364,4.308-9.162,6.673l-3.513,10.742-.3,24.61Z" transform="translate(-301.367 -181.922)" opacity="0.3"/>
        <path id="Trazado_3362" data-name="Trazado 3362" d="M386.195,250.82c1.876,3.069,6.354,8.3,5.4,13.334-1.137,6.093-4.433,10.378-14.459,13.357l-9.412,34.1s4.9,4.547,6.4,8.946,6.911,37.91,6.911,37.91-1.682,2.74-6.968,2.08c0,0-18.427-42.059-19.722-44.8a13.641,13.641,0,0,1-1.557-9.151c.58-4.411,6.82-52.688,6.82-52.688Z" transform="translate(-304.044 -184.535)" fill="#009cda"/>
        <path id="Trazado_3363" data-name="Trazado 3363" d="M386.195,250.82c1.876,3.069,6.354,8.3,5.4,13.334-1.137,6.093-4.433,10.378-14.459,13.357l-9.412,34.1s4.9,4.547,6.4,8.946,6.911,37.91,6.911,37.91-1.682,2.74-6.968,2.08c0,0-18.427-42.059-19.722-44.8a13.641,13.641,0,0,1-1.557-9.151c.58-4.411,6.82-52.688,6.82-52.688Z" transform="translate(-304.044 -184.535)" opacity="0.2"/>
        <path id="Trazado_3364" data-name="Trazado 3364" d="M389.124,228.522l-23.417-3.785c-.477-.1-1.25-.3-2.273-.557h0s-1,14.687-7.014,18.051h0c.148.7.273,1.489.387,2.387.352,2.819,2.273,12.891,2.273,12.891s9.094,4.4,16.562,2.273,9.992-5.3,9.992-5.3l-3.74-6.093C382.94,245.858,387.646,235.672,389.124,228.522Z" transform="translate(-303.518 -188.178)" fill="#009cda"/>
        <path id="Trazado_3365" data-name="Trazado 3365" d="M389.124,228.522l-23.417-3.785c-.477-.1-1.25-.3-2.273-.557h0s-1,14.687-7.014,18.051h0c.148.7.273,1.489.387,2.387.352,2.819,2.273,12.891,2.273,12.891s9.094,4.4,16.562,2.273,9.992-5.3,9.992-5.3l-3.74-6.093C382.94,245.858,387.646,235.672,389.124,228.522Z" transform="translate(-303.518 -188.178)" fill="#fff" opacity="0.7"/>
        <path id="Trazado_3366" data-name="Trazado 3366" d="M380.932,243.35a66.1,66.1,0,0,1-9.742,4.808,18.3,18.3,0,0,0,8.719-2.41Z" transform="translate(-301.498 -185.556)" fill="#009cda"/>
        <path id="Trazado_3367" data-name="Trazado 3367" d="M363.2,199.11s-1.137,7.389,1.546,11.731c0,0,1-2.944,3.49-2.387s2.626,3.842.875,5.684a3.626,3.626,0,0,1-3.683,1.137s-.4,5.343-.614,9.821-1.4,14.243,3.638,18.188,17.676,5.331,23.6-2.944c3.3-4.6-1.08-12.743-3.115-21.871-1.876-8.389-2.933-20.825-11.833-22.826S363.2,199.11,363.2,199.11Z" transform="translate(-302.624 -192.14)" fill="#37474f"/>
      </g>
      <g id="idea_auto-atencion-9" data-name="idea auto-atencion" transform="translate(394.145 105.304)">
        <path id="Trazado_3368" data-name="Trazado 3368" d="M396.866,110.764l-1.876,1.137a9.887,9.887,0,0,0,.261-2.035c0-3.808-2.671-5.343-5.968-3.41a10.526,10.526,0,0,0-2.649,2.273h0c0-5.115-3.592-7.2-8.025-4.638a17.745,17.745,0,0,0-8.025,13.9v.762a4.865,4.865,0,0,0-3.262.75,13.186,13.186,0,0,0-5.968,10.333,6.935,6.935,0,0,0,.148,1.432l-1,.58c-2.717,1.569-4.922,4.627-4.922,6.82s2.205,2.717,4.922,1.137l36.376-20.973c2.717-1.569,4.922-4.627,4.922-6.82S399.583,109.184,396.866,110.764Z" transform="translate(-355.58 -102.997)" fill="#ebebeb"/>
      </g>
    </g>
  </g>
</svg>