<svg width="558" height="372" viewBox="0 0 558 372" fill="none" xmlns="http://www.w3.org/2000/svg">
<g clip-path="url(#clip0)">
<path d="M577.868 85H187.4C171.894 85 156.6 88.6059 142.727 95.533L57.6871 138C43.8144 144.927 28.521 148.533 13.0151 148.533H-15.8259V291.274H577.868V85Z" fill="#E2E2E2"/>
<path d="M577.868 21.821H431.991C416.485 21.821 401.191 25.427 387.318 32.354L302.28 74.815C288.408 81.742 273.114 85.3479 257.608 85.348H189.908V228.093H577.868V21.821Z" fill="#E2E2E2"/>
<path d="M1138.68 194.372V311.32C1138.66 315.848 1136.85 320.184 1133.65 323.386C1130.45 326.588 1126.11 328.397 1121.58 328.42H288.607C281.668 328.443 274.772 327.325 268.196 325.11L234.546 312.974L230.684 311.32C219.514 307.27 209.295 300.97 200.66 292.81C192.025 284.649 185.158 274.802 180.484 263.879C178.766 259.552 177.293 255.132 176.071 250.639L171.658 232.987C170.555 227.711 170.555 222.263 171.658 216.987L189.858 146.377C191.999 138.042 196.841 130.652 203.629 125.362C210.416 120.073 218.765 117.181 227.37 117.141H273.156L395.073 61.427C428.021 46.5725 463.742 38.8643 499.884 38.81H617.384C664.611 38.71 711.357 48.2844 754.742 66.943L924.1 139.208L956.1 144.725C1002.67 152.889 1048.44 165.071 1092.9 181.133L1138.68 194.372Z" fill="white"/>
<path d="M248.889 178.375L272.057 155.206C272.812 154.435 273.325 153.459 273.531 152.399C273.737 151.34 273.628 150.243 273.217 149.245C272.806 148.246 272.111 147.391 271.219 146.783C270.326 146.176 269.275 145.844 268.196 145.828H190.012L179.512 186.649H233.733C239.544 185.595 244.86 182.693 248.889 178.375Z" fill="#892C21"/>
<path d="M268.748 145.828H190.012L186.327 160.171H268.2L272.613 155.757C275.919 151.9 273.161 145.828 268.748 145.828Z" fill="#892C21"/>
<path d="M264.886 178.375L284.193 159.619L233.443 160.171L224.065 186.649H243.924C252.2 187.2 259.37 183.891 264.886 178.375Z" fill="black"/>
<path d="M235.649 154.1L233.443 160.169L284.193 159.617L286.952 156.859L288.607 155.204C289.146 154.718 289.573 154.121 289.858 153.455C290.144 152.788 290.281 152.067 290.261 151.342V149.687C290.261 148.587 289.71 148.032 288.607 147.481L288.055 146.929L287.503 146.377C286.952 146.377 286.403 145.826 285.848 145.826H238.573L235.649 154.1Z" fill="#5C1D16"/>
<path d="M280.946 145.828L284.193 159.619L286.952 156.861L289.903 153.909C290.565 153.247 291.016 152.403 291.198 151.485C291.381 150.567 291.287 149.615 290.929 148.75C290.57 147.885 289.963 147.146 289.185 146.626C288.407 146.106 287.491 145.828 286.555 145.828H280.946Z" fill="#5C1D16"/>
<path d="M243.284 154.13H224.263L225.852 149.54C226.227 148.456 226.93 147.516 227.865 146.85C228.799 146.185 229.918 145.828 231.065 145.828H243.289V154.128L243.284 154.13Z" fill="#5C1D16"/>
<path d="M200.344 292.564C208.619 300.838 219.1 306.906 230.684 311.32H760.258L752.535 304.148C744.321 296.832 733.746 292.72 722.747 292.564H200.344Z" fill="#333333"/>
<path d="M180.485 263.879C185.078 274.852 191.918 284.742 200.564 292.913C209.209 301.084 219.47 307.354 230.685 311.32L234.547 312.975L268.197 325.111C274.784 327.282 281.673 328.399 288.608 328.42H313.43L264.886 279.876C254.798 269.743 241.122 263.994 226.823 263.876L180.485 263.879Z" fill="#E2E2E2"/>
<path d="M1104.48 263.884C1098.41 263.884 1094.55 270.504 1097.31 276.02L1117.17 311.877H1040.49V283.192C1040.51 272.322 1038.38 261.555 1034.22 251.509C1030.07 241.463 1023.97 232.336 1016.29 224.649C1008.6 216.963 999.474 210.868 989.428 206.715C979.382 202.562 968.616 200.431 957.745 200.446C946.875 200.432 936.108 202.562 926.063 206.715C916.017 210.868 906.889 216.963 899.203 224.65C891.516 232.336 885.422 241.464 881.269 251.509C877.116 261.555 874.986 272.322 875 283.192V311.877H448.582C447.929 311.88 447.283 311.753 446.679 311.504C446.075 311.256 445.527 310.89 445.065 310.429C444.604 309.967 444.238 309.419 443.99 308.815C443.741 308.212 443.614 307.565 443.617 306.912V283.192C443.632 272.322 441.501 261.555 437.348 251.509C433.195 241.463 427.101 232.336 419.414 224.649C411.727 216.963 402.6 210.868 392.554 206.715C382.508 202.562 371.742 200.431 360.871 200.446C350.001 200.431 339.234 202.562 329.188 206.715C319.143 210.868 310.015 216.963 302.329 224.649C294.642 232.336 288.548 241.463 284.395 251.509C280.242 261.555 278.111 272.322 278.126 283.192V306.912C278.129 307.565 278.002 308.212 277.754 308.815C277.505 309.419 277.139 309.967 276.678 310.429C276.216 310.89 275.668 311.256 275.064 311.504C274.461 311.753 273.814 311.88 273.161 311.877H231.236L268.748 325.116C275.335 327.288 282.223 328.405 289.158 328.426H302.949C309.89 337.144 318.695 344.196 328.718 349.064C338.742 353.933 349.728 356.494 360.871 356.56C372.035 356.615 383.062 354.107 393.104 349.23C403.146 344.352 411.935 337.235 418.793 328.426H899.271C906.212 337.144 915.017 344.196 925.04 349.064C935.063 353.933 946.05 356.494 957.193 356.56C968.347 356.555 979.354 354.02 989.386 349.147C999.419 344.274 1008.22 337.189 1015.12 328.426H1121.58C1125.75 328.424 1129.77 326.915 1132.92 324.178C1136.06 321.441 1138.11 317.66 1138.68 313.532V263.884H1104.48Z" fill="#AFAFAF"/>
<path d="M361.422 343.314C394.935 343.314 422.102 316.147 422.102 282.634C422.102 249.121 394.935 221.954 361.422 221.954C327.909 221.954 300.742 249.121 300.742 282.634C300.742 316.147 327.909 343.314 361.422 343.314Z" fill="#CBCBCB"/>
<path d="M369.146 111.626L396.728 137.553H754.742V118.8C754.741 117.423 755.011 116.06 755.538 114.788C756.064 113.516 756.836 112.36 757.809 111.386C758.783 110.413 759.939 109.64 761.211 109.114C762.483 108.588 763.846 108.317 765.223 108.318H772.946C778.273 108.297 783.541 109.426 788.391 111.628L847.968 137C848.816 137.445 849.774 137.636 850.727 137.551C858.45 137.551 860.105 127.07 853.485 124.312L749.777 80.183C707.768 62.2034 662.526 53.0049 616.832 53.153H499.332C464.716 53.1034 430.488 60.4379 398.932 74.667L372.456 86.8C363.629 91.216 361.423 104.455 369.146 111.626Z" fill="#AFAFAF"/>
<path d="M373.289 86.4199C363.36 90.8339 361.249 104.81 369.523 111.981L396.723 137.553H436.441L444.715 130.934C434.884 130.898 425.429 127.155 418.237 120.452L379.637 83.5079L373.289 86.4199Z" fill="#333333"/>
<path d="M361.422 324.559C384.577 324.559 403.347 305.789 403.347 282.634C403.347 259.479 384.577 240.709 361.422 240.709C338.268 240.709 319.497 259.479 319.497 282.634C319.497 305.789 338.268 324.559 361.422 324.559Z" fill="#F6F6F6"/>
<path d="M284.526 237.662H172.826L176.07 250.639C177.291 255.131 178.765 259.551 180.483 263.878C187.712 280.807 200.162 294.982 216.016 304.336H272.055V283.186C272.04 267.166 276.349 251.438 284.526 237.662Z" fill="#E2E2E2"/>
<path d="M754.742 130.934H390.473L392.9 133.294H754.742V130.934Z" fill="#333333"/>
<path d="M392.9 133.294L397.28 137.553H754.742V133.294H392.9Z" fill="#333333"/>
<path d="M433.015 172.137H402.6C401.183 172.118 399.829 171.546 398.826 170.544C397.824 169.541 397.252 168.187 397.233 166.77C397.251 165.352 397.823 163.997 398.825 162.994C399.827 161.991 401.182 161.419 402.6 161.4H433.011C434.428 161.419 435.782 161.991 436.784 162.993C437.786 163.995 438.358 165.349 438.377 166.766C438.36 168.184 437.79 169.539 436.788 170.542C435.786 171.545 434.433 172.118 433.015 172.137Z" fill="#E2E2E2"/>
<path d="M439.445 161.851V168.112H432.961C432.34 168.129 431.722 168.019 431.145 167.788C430.568 167.557 430.045 167.211 429.607 166.77L428.041 165.205C427.603 164.764 427.08 164.418 426.503 164.187C425.926 163.956 425.308 163.846 424.687 163.863H399.419C398.798 163.88 398.18 163.77 397.604 163.539C397.027 163.309 396.503 162.962 396.065 162.522L395.618 154.472H439.445V161.851Z" fill="white"/>
<path d="M443.617 306.912C443.614 307.565 443.741 308.212 443.99 308.815C444.238 309.419 444.604 309.967 445.065 310.429C445.527 310.89 446.075 311.256 446.679 311.504C447.282 311.753 447.929 311.88 448.582 311.877H857.827V243.423H433.482C440.155 255.614 443.641 269.293 443.617 283.191V306.912Z" fill="#EEEEEE"/>
<path d="M577.868 249.423H534.824C519.318 249.423 504.024 253.029 490.151 259.956L405.113 302.418C391.24 309.345 375.946 312.95 360.44 312.95H292.74V455.7H577.868V249.423Z" fill="white"/>
<path d="M470.08 109.758C470.08 109.758 476.48 115.036 484.538 115.237C484.538 115.237 484.638 115.249 484.816 115.279C486.85 115.628 488.76 116.492 490.367 117.786C491.974 119.081 493.223 120.765 493.997 122.678C494.77 124.591 495.042 126.67 494.787 128.718C494.533 130.765 493.759 132.714 492.54 134.379L491.723 135.498L477.367 131.671L467.367 115.252L470.08 109.758Z" fill="#3D281E"/>
<path d="M487.313 125.904L468.573 122.534L463.778 113.025L482.519 116.395L487.313 125.904Z" fill="#9581CC"/>
<path d="M486.203 130.237L467.462 126.867L463.778 113.025L482.519 116.395L486.203 130.237Z" fill="#7359BD"/>
<path d="M494.166 64.1279C494.166 64.1279 503.721 84.7959 492.45 104.611C491.173 92.2559 491.947 78.6369 494.166 64.1279Z" fill="#3D281E"/>
<path d="M449.774 87.2999C449.774 87.2999 453.482 96.6069 445.974 110.071C445.974 110.071 433.727 125.037 447.619 134.729L457.804 136.581L468.286 119.481L462.79 94.1069L449.774 87.2999Z" fill="#3D281E"/>
<path d="M493.567 71.145C496.47 76.7368 497.227 83.1977 495.694 89.309C495.609 89.6333 495.607 89.9737 495.688 90.2991C495.768 90.6245 495.929 90.9246 496.155 91.172L500.406 95.736C500.625 95.9705 500.783 96.2546 500.867 96.5638C500.952 96.873 500.96 97.1981 500.891 97.5112C500.823 97.8243 500.679 98.116 500.472 98.3612C500.266 98.6064 500.003 98.7978 499.706 98.919L496.122 99.612C495.98 99.6401 495.845 99.6989 495.728 99.7845C495.611 99.8701 495.514 99.9802 495.444 100.107C495.374 100.234 495.333 100.375 495.323 100.52C495.313 100.665 495.335 100.81 495.387 100.945C495.654 101.655 496.151 102.436 497.043 102.436C497.118 102.698 497.14 102.972 497.109 103.242C497.077 103.513 496.992 103.774 496.859 104.012C496.726 104.25 496.548 104.459 496.334 104.627C496.12 104.795 495.874 104.92 495.612 104.993C495.612 104.993 496.839 106.424 495.919 107.344C495.919 107.344 494.078 107.144 494.078 110.617C494.078 110.617 495.203 114.298 490.908 114.707H484.568L482.952 114.865C482.186 114.94 481.458 115.236 480.858 115.717C480.258 116.199 479.811 116.845 479.572 117.577C479.02 119.266 478.739 121.032 478.739 122.809V132.091L455.015 121.149C455.015 121.149 460.022 116.004 458.489 103.222L453.482 96.607L450.925 79.019L464.525 63.271L483.648 63.987L493.567 71.145Z" fill="#C14F29"/>
<path d="M479.892 124.583C477.822 122.728 478.845 119.802 479.572 117.577C479.811 116.845 480.258 116.199 480.858 115.717C481.458 115.236 482.186 114.94 482.952 114.865L484.568 114.707H488.368L472.285 107.607C471.416 107.222 470.715 106.536 470.31 105.676V78.2L469.48 81.629L458.491 103.359C459.7 113.435 456.849 118.666 455.584 120.436L455.014 121.152L473.738 129.788L480.579 132.943L484.82 129.003L479.892 124.583Z" fill="#C14F29"/>
<path d="M494.449 137.625L484.822 129L480.581 132.94L490.781 137.646C490.781 137.646 494.474 137.646 494.449 137.625Z" fill="white"/>
<path d="M471.979 110.319L479.23 118.784C479.33 118.378 479.442 117.975 479.572 117.577C479.811 116.845 480.258 116.199 480.858 115.717C481.458 115.236 482.186 114.94 482.952 114.865L484.568 114.707H488.368L472.286 107.607C471.417 107.222 470.715 106.536 470.31 105.676V105.808C470.31 107.463 470.902 109.063 471.979 110.319Z" fill="#993F21"/>
<path d="M472.485 92.9L476.345 91.216C477.046 90.9102 477.642 90.4068 478.061 89.7674C478.48 89.128 478.703 88.3804 478.704 87.616C478.704 86.9214 478.888 86.2392 479.238 85.6388C479.587 85.0384 480.089 84.5413 480.693 84.198L482.058 83.422C482.565 83.1343 483.001 82.7376 483.335 82.2606C483.67 81.7836 483.894 81.2383 483.992 80.664L484.307 78.816C484.395 78.2872 484.59 77.7821 484.882 77.332C485.173 76.882 485.554 76.4967 486 76.2C488.188 74.6539 490.609 73.468 493.172 72.687C495.322 71.463 497.079 68.635 498.681 65.164C498.781 64.895 487.624 61.211 486.657 60.936C477.036 58.2 466.257 59.044 458.109 65.298C453.569 68.7326 450.449 73.7145 449.34 79.298C448.165 85.754 450.923 90.898 453.481 96.609C455.032 100.074 454.366 100.609 457.431 102.696C457.691 102.886 457.97 103.049 458.263 103.184C458.336 103.205 458.412 103.219 458.488 103.224C459.614 103.337 460.747 103.101 461.734 102.547C462.72 101.992 463.511 101.147 464 100.127L467.287 93.386L472.485 92.9Z" fill="#3D281E"/>
<path d="M498.681 65.166C498.681 65.166 490.303 86.338 468.181 91.841C476.247 82.4 486.643 73.565 498.681 65.166Z" fill="#3D281E"/>
<path d="M489.181 85.7779L491.951 84.6439C492.392 84.4638 492.871 84.4001 493.344 84.4589L494.604 84.6169C494.688 84.6272 494.774 84.6207 494.856 84.5978C494.938 84.5748 495.014 84.5358 495.081 84.4831C495.148 84.4304 495.204 84.365 495.245 84.2906C495.286 84.2163 495.312 84.1345 495.322 84.0499C495.357 83.7525 495.347 83.4516 495.294 83.1569C495.266 83.0087 495.188 82.8747 495.072 82.7781C494.957 82.6816 494.811 82.6284 494.66 82.6279H492.4C491.659 82.628 490.942 82.8958 490.383 83.3819L487.242 86.1099H487.493C488.072 86.1099 488.645 85.9972 489.181 85.7779Z" fill="#3D281E"/>
<path d="M493.92 89.057C493.92 88.157 493.471 87.422 492.92 87.422C492.369 87.422 491.92 88.154 491.92 89.057C491.921 89.225 491.939 89.3925 491.973 89.557L493.583 90.281C493.815 89.9157 493.932 89.4895 493.92 89.057Z" fill="black"/>
<path d="M496.041 98.126C495.33 97.9812 494.591 98.0718 493.936 98.384C493.597 98.641 493.721 98.884 494.12 98.901C494.565 98.924 496.13 98.633 495.999 98.058C495.884 98.051 495.75 98.037 496.041 98.126Z" fill="#993F21"/>
<path d="M491.1 103.726C490.499 103.436 489.883 103.181 489.253 102.962C489.636 103.432 490.069 103.859 490.545 104.235C491.488 105.079 492.558 105.771 493.715 106.285C494.485 106.565 495.228 106.914 495.935 107.327C496.823 106.406 495.616 104.993 495.616 104.993C494.849 104.798 494.738 104.405 493.957 104.263C493 104.089 492.032 103.96 491.1 103.726Z" fill="#993F21"/>
<path d="M489.249 102.962C491.531 104.22 493.156 104.234 495.612 104.993C495.874 104.92 496.12 104.795 496.334 104.627C496.548 104.459 496.726 104.25 496.859 104.012C496.992 103.774 497.077 103.513 497.108 103.242C497.14 102.972 497.118 102.698 497.043 102.436C496.193 102.511 494.778 102.536 493.402 102.625C491.177 102.765 490.676 102.912 489.249 102.962Z" fill="#993F21"/>
<path d="M473.315 91.6939C473.048 91.1778 472.669 90.7279 472.205 90.377C471.742 90.026 471.206 89.7829 470.637 89.6653C470.068 89.5478 469.479 89.5587 468.915 89.6974C468.35 89.8361 467.824 90.099 467.374 90.467C466.672 91.0405 466.191 91.8408 466.015 92.7304C465.839 93.6199 465.978 94.543 466.409 95.341L467.687 98.564C468.265 99.638 468.44 100.264 469.655 100.145C469.655 100.145 472.4 99.6789 472.4 98.1159L473.315 91.6939Z" fill="#993F21"/>
<path d="M493.5 86.338C493.5 86.338 493.384 87.563 494.05 88.083L489.287 88.338C490.441 87.2375 491.918 86.5364 493.5 86.338Z" fill="#993F21"/>
<path d="M495.74 87.4599C494.995 87.6287 494.217 87.573 493.504 87.2999L489.291 88.3379C489.291 88.3379 493.775 88.7239 495.74 87.4599Z" fill="black"/>
<path d="M500.764 97.9H500.758C500.92 97.5457 500.972 97.1514 500.91 96.767C500.847 96.3827 500.672 96.0256 500.406 95.741L498.306 93.485L470.872 89.585L468.284 96.762L482.391 114.962C482.576 114.915 482.763 114.881 482.953 114.862C484.029 114.762 485.111 114.704 486.192 114.704H490.909C492.839 114.52 493.67 113.676 494.009 112.804V112.81L500.743 97.951L500.764 97.9Z" fill="#D4E2FC"/>
<path d="M474.733 86.11L454.634 113.025L453.852 101.153L474.733 86.11Z" fill="#3D281E"/>
<path d="M473.39 91.77L472.325 89.714C472.058 89.1979 471.679 88.7479 471.215 88.397C470.752 88.046 470.216 87.8029 469.647 87.6853C469.078 87.5678 468.489 87.5787 467.925 87.7174C467.36 87.8561 466.834 88.119 466.384 88.487C465.682 89.0605 465.201 89.8609 465.025 90.7504C464.849 91.64 464.988 92.5631 465.419 93.361L467.687 97.574C467.97 98.0994 468.401 98.5297 468.927 98.8109C469.454 99.0921 470.051 99.2118 470.645 99.155C471.396 99.0833 472.094 98.7343 472.601 98.1761C473.109 97.6178 473.39 96.8905 473.39 96.136V91.77Z" fill="#C14F29"/>
<path d="M481.928 98.4179C481.69 99.2696 481.23 100.043 480.595 100.657C479.959 101.272 479.172 101.706 478.312 101.915C477.453 102.125 476.554 102.101 475.707 101.847C474.86 101.593 474.096 101.118 473.494 100.471L468.283 94.8709L469.628 90.2789L478.236 92.2309C478.893 92.38 479.513 92.6609 480.058 93.0566C480.603 93.4524 481.062 93.9548 481.408 94.5333C481.753 95.1119 481.977 95.7545 482.066 96.4222C482.156 97.09 482.109 97.7689 481.928 98.4179Z" fill="#C14F29"/>
<path d="M455.015 121.149L450.925 127.072C449.394 130.093 448.981 134.354 448.547 137.646H490.785L455.015 121.149Z" fill="#9581CC"/>
<path d="M477.096 128.547L473.375 116.395L454.634 113.025L458.911 126.995L490.824 137.646L477.096 128.547Z" fill="#7359BD"/>
<path d="M469.666 125.904L450.925 122.534L454.634 113.025L473.374 116.395L469.666 125.904Z" fill="#9581CC"/>
<path d="M485.208 135.056L479.808 132.566C469.408 127.769 458.092 125.285 446.639 125.285H379.979L391.091 132.894H442.661C451.873 132.895 461.015 134.503 469.674 137.646H490.824L485.208 135.056Z" fill="white"/>
<path d="M526.767 137.553H397.007V162.284H526.767V137.553Z" fill="white"/>
<path d="M315.162 251.711H-15.8259V278.396H315.162V251.711Z" fill="white"/>
<path d="M294.274 278.396H-15.8259V454.221H294.274V278.396Z" fill="#EEEEEE"/>
<path d="M-15.8259 289.776H31.7741C48.5881 289.777 65.1716 293.688 80.2141 301.2L172.424 347.242C187.467 354.753 204.05 358.663 220.864 358.663H294.273V513.444H-15.8269L-15.8259 289.776Z" fill="white"/>
<path d="M192.674 123.723H152.126V131.284H192.674V123.723Z" fill="#5B91F4"/>
<path d="M150.573 92.457C150.573 92.457 155.08 109.667 153.646 137.12H192.368V114.789L150.573 92.457Z" fill="#FABDA5"/>
<path d="M158 105.751L170.97 123.226C175.019 128.681 180.58 132.828 186.964 135.153L192.364 137.121V114.79L158 105.751Z" fill="#F19164"/>
<path d="M139.483 64.251C139.779 64.799 140.115 65.3239 140.49 65.821C143.545 70.527 144.13 78.371 145.549 83.81C145.654 84.2169 145.915 84.566 146.276 84.782C146.637 84.9979 147.068 85.0633 147.476 84.964L199.55 72.415C199.852 72.3421 200.127 72.1829 200.34 71.9566C200.553 71.7304 200.695 71.447 200.75 71.141C201.708 65.829 203.678 59.821 203.425 54.425C203.206 49.753 199.925 45.344 195.185 44.542L191.575 43.931C191.361 43.8949 191.156 43.8156 190.974 43.6978C190.791 43.58 190.634 43.4263 190.513 43.246L190.188 42.764C187.18 38.301 182.935 38.751 178.188 39.096C170.77 39.635 158.388 38.627 152.312 43.686L148.458 46.919C147.101 47.9541 145.995 49.283 145.224 50.806C144.686 51.962 145.016 54.126 143.131 54.126C142.791 54.1254 142.459 54.2332 142.184 54.4339C141.91 54.6346 141.706 54.9177 141.603 55.242C140.894 57.46 138.603 61.718 139.384 64C139.413 64.086 139.447 64.169 139.483 64.251Z" fill="#892C21"/>
<path d="M151.094 90.427L157.994 106.885C158.83 108.877 160.325 110.521 162.229 111.542L178.91 120.478C181.036 121.617 183.519 121.896 185.845 121.258L187.268 120.867C188.901 120.419 190.383 119.538 191.557 118.318C192.731 117.098 193.555 115.584 193.94 113.935L199.208 91.405C199.484 90.2258 199.457 88.9962 199.131 87.83C198.642 86.077 198.834 84.2037 199.67 82.587L200.489 81.006C201.06 79.9033 201.407 78.6984 201.51 77.461C201.613 76.2235 201.47 74.9779 201.089 73.796L194.51 53.36H157.443L148.843 75.887L151.094 90.427Z" fill="#FABDA5"/>
<path d="M149.521 86.845L156.395 86.158L157.118 78.726C157.192 77.9657 157.449 77.2347 157.869 76.5964C158.289 75.9582 158.858 75.4319 159.527 75.063L162.9 73.2C163.637 72.794 164.251 72.1977 164.678 71.4733C165.106 70.749 165.331 69.9232 165.331 69.082C165.331 68.3632 165.495 67.6538 165.812 67.0085C166.129 66.3633 166.59 65.7993 167.159 65.36L172.764 61.029C173.281 60.6293 173.876 60.3417 174.51 60.1847C175.144 60.0276 175.804 60.0046 176.448 60.117L189.39 62.373L196.278 58.843V51.243H154.853L145.948 75.163L149.521 86.845Z" fill="#892C21"/>
<path d="M178.345 84.9571C179.213 84.9571 179.916 84.2537 179.916 83.3861C179.916 82.5184 179.213 81.8151 178.345 81.8151C177.478 81.8151 176.774 82.5184 176.774 83.3861C176.774 84.2537 177.478 84.9571 178.345 84.9571Z" fill="black"/>
<path d="M196.733 84.9571C197.601 84.9571 198.304 84.2537 198.304 83.3861C198.304 82.5184 197.601 81.8151 196.733 81.8151C195.865 81.8151 195.162 82.5184 195.162 83.3861C195.162 84.2537 195.865 84.9571 196.733 84.9571Z" fill="black"/>
<path d="M169.162 83.938H169.181C169.87 83.9366 170.552 83.7908 171.181 83.51C173.646 82.416 180.168 79.881 179.634 83.938H180.422C180.422 83.938 181.558 78.112 169.162 83.938Z" fill="black"/>
<path d="M180.025 84.3319C180.243 84.3319 180.419 84.1556 180.419 83.938C180.419 83.7203 180.243 83.5439 180.025 83.5439C179.808 83.5439 179.631 83.7203 179.631 83.938C179.631 84.1556 179.808 84.3319 180.025 84.3319Z" fill="black"/>
<path d="M191.759 83.514C191.931 83.5765 192.106 83.6273 192.285 83.666C192.831 83.742 193.245 83.13 193.64 82.849C194.153 82.4752 194.7 82.1501 195.274 81.878C196.766 81.191 197.911 81.569 197.815 83.386L198.287 83.224C198.603 83.116 197.847 81.796 197.728 81.692C196.412 80.544 193.98 82.073 192.848 82.76C192.445 82.9478 192.077 83.2028 191.759 83.514Z" fill="black"/>
<path d="M168.911 79.3C168.56 79.422 168.165 79.812 168.604 80.124C168.904 80.339 169.604 80.11 169.917 80.065C171.234 79.876 172.564 79.806 173.905 79.738C176.888 79.5146 179.882 79.4965 182.867 79.684C183.678 79.754 184.282 79.706 184.001 78.684C183.758 77.804 182.665 77.657 181.881 77.427C179.941 76.7448 177.844 76.6378 175.844 77.119C174.391 77.514 172.955 78.026 171.501 78.433C170.611 78.6354 169.744 78.9258 168.911 79.3Z" fill="#892C21"/>
<path d="M201.541 76.523C200.463 76.4316 199.378 76.4668 198.308 76.628C196.793 76.906 195.323 77.228 193.821 77.558C192.981 77.7061 192.164 77.9671 191.394 78.334C191.172 78.85 191.071 79.946 191.744 80.084C192.208 80.0803 192.669 80.0062 193.111 79.864C193.923 79.753 194.773 79.816 195.594 79.779C197.438 79.695 199.311 79.665 201.108 79.479C201.41 78.5232 201.556 77.5252 201.541 76.523Z" fill="#892C21"/>
<path d="M182.527 108.745C185.627 110.745 191.127 109.839 191.927 109.299V111.576C190.787 109.99 184.121 111.634 184.121 111.634L182.527 108.745Z" fill="#F19164"/>
<path d="M181.115 105.544C184.395 106.592 187.863 106.921 191.282 106.51C191.514 106.48 191.729 106.369 191.888 106.196C192.046 106.024 192.14 105.801 192.151 105.567C192.161 105.394 192.167 105.19 192.167 104.951L187.254 104.462L181.115 105.544Z" fill="#EBE0DB"/>
<path d="M180.263 105.664C183.789 106.788 187.527 107.083 191.186 106.525C191.3 106.05 191.343 105.56 191.315 105.072L186.402 104.583L180.263 105.664Z" fill="#EBE0DB"/>
<path d="M177.572 104.378C179.181 105.532 181.133 106.107 183.11 106.011C186.293 105.953 189.471 105.725 192.63 105.328C193.217 105.222 193.768 104.971 194.233 104.598C194.698 104.224 195.062 103.74 195.291 103.19C194.762 103.372 193.605 104.29 192.38 103.481C191.337 103.262 190.6 104.052 189.667 104.215C188.588 104.403 188.035 103.68 186.92 103.853C185.459 104.079 183.33 104.895 181.891 104.803C180.445 104.739 179.003 104.597 177.572 104.378Z" fill="#F19164"/>
<path d="M191.108 97.9H191.098C190.376 97.8663 189.657 98.0033 188.998 98.3L183.691 97.477L187.533 102.199C187.898 102.647 188.415 102.945 188.986 103.034C189.552 103.123 190.13 103.001 190.612 102.692C191.093 102.383 191.445 101.909 191.601 101.358L192.909 96.73C192.754 97.0783 192.502 97.3742 192.182 97.5818C191.862 97.7895 191.489 97.9 191.108 97.9Z" fill="#F19164"/>
<path d="M190.175 80.938V82.938L193.428 94.71C193.552 95.1593 193.568 95.6316 193.473 96.0879C193.378 96.5443 193.176 96.9714 192.883 97.334C192.44 98.249 191.225 98.427 190.329 98.521C189.665 98.591 189.002 98.674 188.339 98.756C187.462 98.9427 186.557 98.9512 185.677 98.781C184.896 98.563 184.202 98.1089 183.69 97.481L183.302 97.031L184.607 94.247L183.824 87.374L187.217 83.024L186.956 80.936H190.175V80.938Z" fill="#FABDA5"/>
<path d="M152.241 87.028L149.174 82.1631C148.646 81.327 147.81 80.7324 146.847 80.5079C145.884 80.2833 144.871 80.4468 144.028 80.963L141.84 82.2991C141.043 82.7859 140.455 83.5519 140.191 84.4481C139.927 85.3442 140.005 86.3066 140.411 87.1481L143.356 93.2481C143.851 94.2729 144.56 95.1791 145.436 95.9051C146.313 96.6311 147.335 97.1597 148.434 97.4551C149.951 97.8628 151.554 97.8103 153.041 97.3041L154.849 96.6881V94.7731L152.241 87.028Z" fill="#FABDA5"/>
<path d="M226.079 251.711H118.844V140.771L148.55 136.071C164.392 133.564 180.531 133.564 196.373 136.071L226.079 140.771V251.711Z" fill="#5B91F4"/>
<path d="M158.187 151.351L144.829 140.374L152.887 126.418L172.461 134.568L158.187 151.351Z" fill="#5B91F4"/>
<path d="M186.588 151.351L199.946 137.546L191.889 126.418L172.461 134.568L186.588 151.351Z" fill="#5B91F4"/>
<path d="M186.519 135.93L181.808 131.219L172.387 140.64L177.098 145.351L186.519 135.93Z" fill="#1E54B7"/>
<path d="M167.824 145.352L172.535 140.641L163.114 131.221L158.404 135.931L167.824 145.352Z" fill="#1E54B7"/>
<path d="M118.844 140.771L115.121 142.421C113.094 143.319 111.402 144.834 110.287 146.751L49.167 251.711H157.179L118.844 140.771Z" fill="#5B91F4"/>
<path d="M226.079 140.771L229.801 142.421C231.829 143.319 233.521 144.834 234.636 146.751L271.005 209.207C273.506 213.504 274.83 218.384 274.844 223.356C274.857 228.327 273.56 233.215 271.082 237.525C268.604 241.835 265.033 245.415 260.73 247.905C256.426 250.395 251.543 251.707 246.571 251.707H210.871L226.079 140.771Z" fill="#5B91F4"/>
<path d="M226.079 189.569L236.209 213.781L226.079 234.246V189.569Z" fill="#276EF1"/>
<path d="M272.117 211.329L226.079 214.473L173.71 218.05V251.711H246.571C251.34 251.71 256.031 250.503 260.208 248.203C264.385 245.902 267.912 242.583 270.461 238.553C273.011 234.523 274.499 229.914 274.789 225.154C275.078 220.394 274.159 215.638 272.117 211.329Z" fill="#5B91F4"/>
<path d="M274.058 216.729C259.2 239.165 229.289 246.02 199.1 246.552V251.711H246.568C250.852 251.71 255.08 250.735 258.933 248.862C262.786 246.989 266.163 244.265 268.81 240.897C271.457 237.529 273.305 233.603 274.214 229.417C275.123 225.23 275.07 220.892 274.058 216.729Z" fill="#276EF1"/>
<path d="M214.811 180.073H185.081V187.958H214.811V180.073Z" fill="#5B91F4"/>
<path d="M46.6311 219.2L63.5641 217.971C63.9814 217.94 64.3717 217.753 64.6566 217.447C64.9415 217.14 65.1 216.737 65.1001 216.319C65.0999 215.894 65.2635 215.484 65.5569 215.176C65.8504 214.869 66.2512 214.685 66.6761 214.665L118.844 212.133V251.707H49.1671L46.6311 219.2Z" fill="#5B91F4"/>
<path d="M131.318 176.87C129.246 182.856 126.716 188.673 123.75 194.27C114.95 210.755 104.43 229.054 87.959 238.87C79.875 243.687 62.571 248.345 48.843 247.552L49.167 251.713H157.179L131.318 176.87Z" fill="#276EF1"/>
<path d="M158.187 148.137L144.829 137.16L150.842 124.53C150.924 124.358 151.039 124.205 151.182 124.079C151.324 123.953 151.49 123.857 151.671 123.796C151.851 123.736 152.042 123.713 152.232 123.728C152.421 123.743 152.606 123.797 152.774 123.885L172.461 134.185L158.187 148.137Z" fill="#A0BFF9"/>
<path d="M186.588 148.137L199.946 137.16L193.933 124.53C193.851 124.358 193.736 124.205 193.594 124.079C193.451 123.953 193.285 123.857 193.105 123.796C192.924 123.736 192.734 123.713 192.544 123.728C192.355 123.743 192.17 123.797 192.002 123.885L172.314 134.185L186.588 148.137Z" fill="#A0BFF9"/>
<path d="M186.13 241.818H158.793L170.085 145.351H174.838L186.13 241.818Z" fill="#1E54B7"/>
<path d="M105.912 185.015H203.425C205.401 185.015 207.295 185.8 208.692 187.197C210.089 188.594 210.874 190.488 210.874 192.464V252.711H98.4631V192.464C98.4631 191.486 98.6558 190.517 99.0302 189.613C99.4045 188.71 99.9532 187.888 100.645 187.197C101.337 186.505 102.158 185.956 103.062 185.582C103.965 185.208 104.934 185.015 105.912 185.015Z" fill="#FFFEFF"/>
<path d="M178.925 140.675L174.203 135.953C173.241 134.991 171.682 134.991 170.72 135.953L165.998 140.675C165.036 141.637 165.036 143.196 165.998 144.158L170.72 148.88C171.682 149.842 173.241 149.842 174.203 148.88L178.925 144.158C179.887 143.196 179.887 141.637 178.925 140.675Z" fill="#1E54B7"/>
<path d="M266.563 251.905H279.005C283.052 251.897 286.93 250.285 289.792 247.424C292.653 244.562 294.265 240.684 294.273 236.637V217.551H251.153V236.637C251.216 240.691 252.865 244.559 255.745 247.413C258.625 250.267 262.508 251.879 266.563 251.905Z" fill="#AE3729"/>
<path d="M251.578 244.836C249.754 244.847 247.977 244.258 246.52 243.159C245.064 242.061 244.01 240.514 243.519 238.757L241.257 230.699C241 229.836 240.917 228.93 241.013 228.035C241.109 227.139 241.382 226.271 241.816 225.482C242.25 224.693 242.836 223.998 243.541 223.437C244.246 222.876 245.055 222.461 245.922 222.216C247.684 221.73 249.567 221.963 251.158 222.865C252.748 223.766 253.916 225.261 254.405 227.023L258.929 243.14L253.7 244.7C252.999 244.82 252.288 244.866 251.578 244.836ZM247.9 224.761C247.518 224.738 247.134 224.786 246.769 224.902C246.231 225.037 245.726 225.283 245.288 225.624C244.85 225.965 244.488 226.393 244.224 226.882C243.95 227.346 243.772 227.86 243.699 228.394C243.626 228.928 243.661 229.471 243.8 229.992L246.062 238.05C246.492 239.482 247.453 240.696 248.748 241.443C250.052 242.121 251.553 242.322 252.989 242.009L255.534 241.302L251.717 227.871C251.557 226.982 251.084 226.18 250.384 225.61C249.684 225.04 248.803 224.739 247.9 224.761Z" fill="#D44333"/>
<path d="M261.332 217.551V250.916C258.374 249.846 255.82 247.886 254.023 245.304C252.226 242.721 251.275 239.646 251.3 236.5V217.409L261.337 217.551H261.332Z" fill="#D44333"/>
<path d="M45.1902 236.536L52.4092 249.766C52.7491 250.389 53.2599 250.903 53.8814 251.246C54.503 251.589 55.2095 251.748 55.9182 251.704C56.4322 251.672 56.9341 251.534 57.3922 251.298C57.8503 251.063 58.2548 250.735 58.5802 250.336L58.6892 250.203C59.1161 249.679 59.3926 249.048 59.4892 248.379C59.5857 247.71 59.4986 247.027 59.2372 246.403L53.6502 233.082C53.3472 232.36 52.839 231.743 52.1886 231.307C51.5382 230.871 50.7741 230.636 49.9912 230.63L48.7312 230.62C47.8361 230.614 46.9647 230.908 46.2562 231.455C45.5032 232.037 44.9823 232.868 44.7869 233.799C44.5915 234.73 44.7345 235.701 45.1902 236.536Z" fill="#FABDA5"/>
<path d="M43.5502 235.425L50.7692 248.655C51.1093 249.278 51.6201 249.792 52.2416 250.135C52.8631 250.478 53.5696 250.637 54.2782 250.593C54.7922 250.561 55.2941 250.423 55.7522 250.187C56.2103 249.952 56.6148 249.624 56.9402 249.225L57.0492 249.091C57.4762 248.567 57.7528 247.936 57.8495 247.267C57.9462 246.598 57.8593 245.915 57.5982 245.291L52.0102 231.971C51.7074 231.249 51.1992 230.631 50.5488 230.195C49.8984 229.759 49.1343 229.524 48.3512 229.518L47.0912 229.509C46.1961 229.502 45.3246 229.796 44.6162 230.343C43.863 230.925 43.3419 231.756 43.1465 232.688C42.9511 233.619 43.0942 234.59 43.5502 235.425Z" fill="#F19164"/>
<path d="M47.0252 220.6C47.3688 220.698 47.7073 220.814 48.0392 220.947C50.5521 221.949 52.7048 223.685 54.2164 225.928C55.728 228.172 56.5284 230.819 56.5132 233.524V242.724L46.7732 232.984L47.0252 220.6Z" fill="#F19164"/>
<path d="M54.0911 231.53L56.5131 240.054V233.793C56.5169 231.476 55.9866 229.189 54.9634 227.11C53.9402 225.031 52.4515 223.216 50.6131 221.806C49.4258 220.862 48.1388 220.051 46.7751 219.387C47.7991 221.701 50.9651 226.962 51.6451 230.105L54.0911 231.53Z" fill="#FABDA5"/>
<path d="M16.567 232.4L15.457 239.3C15.3402 240.024 15.4909 240.766 15.881 241.387L18.689 245.865L19.7 235.63L16.567 232.4Z" fill="#FABDA5"/>
<path d="M17.575 233.41L16.405 240.686C16.3269 241.169 16.4271 241.663 16.687 242.077L19.697 246.877L20.708 236.638L17.575 233.41Z" fill="#F19164"/>
<path d="M23.4492 246.092L44.1232 238.397V220.595L29.8502 226.591L23.4492 246.092Z" fill="#F19164"/>
<path d="M34.6472 219.3C33.9222 219.178 32.7862 218.918 31.8012 218.68C31.1901 218.533 30.5529 218.531 29.9409 218.675C29.329 218.818 28.7592 219.103 28.2772 219.507L17.1552 228.8C16.5888 229.273 16.1633 229.893 15.9248 230.591C15.6864 231.29 15.6444 232.04 15.8032 232.761L18.6892 245.861L23.3012 251.58H25.3302L27.9132 248.444L23.8542 234.033L34.6472 219.3Z" fill="#FABDA5"/>
<path d="M39.4281 220.291C38.7181 220.102 37.6121 219.735 36.6541 219.405C36.0596 219.201 35.4255 219.139 34.8026 219.224C34.1797 219.308 33.5853 219.538 33.0671 219.894L20.1061 228.784C19.8018 228.993 19.5606 229.281 19.4087 229.618C19.2569 229.954 19.2003 230.326 19.2451 230.692L21.0271 245.227L25.0761 251.356L27.0971 251.549L29.9651 248.671L27.2891 233.941L39.4281 220.291Z" fill="#F19164"/>
<path d="M55.3091 249.682C55.3135 247.564 54.8742 245.468 54.0196 243.529C53.165 241.591 51.914 239.853 50.3471 238.427C48.7802 237.002 46.9321 235.92 44.9219 235.252C42.9116 234.583 40.7837 234.344 38.6751 234.547C36.5665 234.751 34.524 235.394 32.679 236.435C30.8339 237.476 29.2273 238.892 27.9625 240.591C26.6977 242.291 25.8028 244.236 25.3353 246.302C24.8678 248.368 24.8381 250.51 25.2481 252.588H55.0212C55.2107 251.631 55.3071 250.658 55.3091 249.682Z" fill="white"/>
<path d="M23.28 227.119C22.4627 227.788 21.9243 228.738 21.77 229.783L19.828 242.965C19.7882 243.234 19.8107 243.508 19.8937 243.767C19.9768 244.025 20.1182 244.262 20.307 244.457L20.707 244.872C21.2065 245.389 21.8682 245.72 22.5818 245.809C23.2954 245.898 24.0179 245.739 24.629 245.36C24.964 245.152 25.2202 244.838 25.357 244.468L30.68 230.1L44.7 222.532L42.424 216.6L39.286 218.019C39.0644 218.143 38.813 218.203 38.5595 218.193C38.3059 218.183 38.0601 218.103 37.849 217.962C37.3101 217.603 36.6702 217.426 36.0235 217.458C35.3767 217.49 34.7572 217.728 34.256 218.138L23.28 227.119Z" fill="#FABDA5"/>
<path d="M38.0891 226.37L40.0191 220.595L40.1351 225.962L38.0891 226.37Z" fill="#F19164"/>
<path d="M42.1221 216.724C41.2847 217.106 40.5811 217.731 40.1018 218.517C39.6226 219.303 39.3897 220.214 39.4331 221.134L40.0971 235.193C40.1229 235.902 40.3503 236.589 40.7525 237.173C41.1547 237.758 41.7151 238.216 42.3681 238.493C42.8421 238.694 43.3526 238.795 43.8675 238.79C44.3824 238.784 44.8905 238.672 45.3601 238.461L45.5171 238.39C46.1343 238.113 46.6644 237.672 47.0507 237.117C47.437 236.561 47.665 235.911 47.7101 235.236L48.6481 221.227C48.7089 220.327 48.5039 219.428 48.0585 218.643C47.6132 217.858 46.9472 217.222 46.1431 216.812L46.1311 216.806C45.5126 216.49 44.8307 216.319 44.1365 216.304C43.4422 216.289 42.7536 216.431 42.1221 216.72V216.724Z" fill="#FABDA5"/>
<path d="M41.1 236.055C41.1063 236.473 41.2044 236.884 41.3874 237.26C41.5705 237.636 41.8339 237.966 42.159 238.229C42.6394 238.594 43.2257 238.792 43.829 238.794C44.2184 238.799 44.6058 238.738 44.975 238.614L45.361 238.465C46.281 238.052 47.4 237.187 47.468 236.18L47.711 235.394C45.7288 234.742 43.5941 234.713 41.5951 235.312C41.4427 235.365 41.3118 235.466 41.2225 235.6C41.1331 235.734 41.0901 235.894 41.1 236.055Z" fill="#F19164"/>
</g>
<defs>
<clipPath id="clip0">
<rect width="558" height="372" fill="white"/>
</clipPath>
</defs>
</svg>
